HIERARCHY
ROOT Hips
{
	OFFSET 0.000000 0.000000 0.000000
	CHANNELS 6 Xposition Yposition Zposition Zrotation Yrotation Xrotation 
	JOINT LHipJoint
	{
		OFFSET 0.000000 0.000000 0.000000
		CHANNELS 3 Zrotation Yrotation Xrotation
		JOINT LeftUpLeg
		{
			OFFSET 1.363060 -1.794630 0.839290
			CHANNELS 3 Zrotation Yrotation Xrotation
			JOINT LeftLeg
			{
				OFFSET 2.448110 -6.726130 0.000000
				CHANNELS 3 Zrotation Yrotation Xrotation
				JOINT LeftFoot
				{
					OFFSET 2.562200 -7.039590 0.000000
					CHANNELS 3 Zrotation Yrotation Xrotation
					JOINT LeftToeBase
					{
						OFFSET 0.157640 -0.433110 2.322550
						CHANNELS 3 Zrotation Yrotation Xrotation
						End Site
						{
							OFFSET 0.000000 0.000000 0.000000
						}
					}
				}
			}
		}
	}
	JOINT RHipJoint
	{
		OFFSET 0.000000 0.000000 0.000000
		CHANNELS 3 Zrotation Yrotation Xrotation
		JOINT RightUpLeg
		{
			OFFSET -1.305520 -1.794630 0.839290
			CHANNELS 3 Zrotation Yrotation Xrotation
			JOINT RightLeg
			{
				OFFSET -2.542530 -6.985550 0.000000
				CHANNELS 3 Zrotation Yrotation Xrotation
				JOINT RightFoot
				{
					OFFSET -2.568260 -7.056230 0.000000
					CHANNELS 3 Zrotation Yrotation Xrotation
					JOINT RightToeBase
					{
						OFFSET -0.164730 -0.452590 2.363150
						CHANNELS 3 Zrotation Yrotation Xrotation
						End Site
						{
							OFFSET 0.000000 0.000000 0.000000
						}
					}
				}
			}
		}
	}
	JOINT LowerBack
	{
		OFFSET 0.000000 0.000000 0.000000
		CHANNELS 3 Zrotation Yrotation Xrotation
		JOINT Spine
		{
			OFFSET 0.028270 2.035590 -0.193380
			CHANNELS 3 Zrotation Yrotation Xrotation
			JOINT Spine1
			{
				OFFSET 0.056720 2.048850 -0.042750
				CHANNELS 3 Zrotation Yrotation Xrotation
				JOINT Neck
				{
					OFFSET 0.000000 0.000000 0.000000
					CHANNELS 3 Zrotation Yrotation Xrotation
					JOINT Neck1
					{
						OFFSET -0.054170 1.746240 0.172020
						CHANNELS 3 Zrotation Yrotation Xrotation
						JOINT Head
						{
							OFFSET 0.104070 1.761360 -0.123970
							CHANNELS 3 Zrotation Yrotation Xrotation
							End Site
							{
								OFFSET 0.000000 0.000000 0.000000
							}
						}
					}
				}
				JOINT LeftShoulder
				{
					OFFSET 0.000000 0.000000 0.000000
					CHANNELS 3 Zrotation Yrotation Xrotation
					JOINT LeftArm
					{
						OFFSET 3.362410 1.200890 -0.311210
						CHANNELS 3 Zrotation Yrotation Xrotation
						JOINT LeftForeArm
						{
							OFFSET 4.983000 -0.000000 -0.000000
							CHANNELS 3 Zrotation Yrotation Xrotation
							JOINT LeftHand
							{
								OFFSET 3.483560 -0.000000 -0.000000
								CHANNELS 3 Zrotation Yrotation Xrotation
								JOINT LeftFingerBase
								{
									OFFSET 0.000000 0.000000 0.000000
									CHANNELS 3 Zrotation Yrotation Xrotation
									JOINT LeftHandIndex1
									{
										OFFSET 0.715260 -0.000000 -0.000000
										CHANNELS 3 Zrotation Yrotation Xrotation
										End Site
										{
											OFFSET 0.000000 0.000000 0.000000
										}
									}
								}
								JOINT LThumb
								{
									OFFSET 0.000000 0.000000 0.000000
									CHANNELS 3 Zrotation Yrotation Xrotation
									End Site
									{
										OFFSET 0.000000 0.000000 0.000000
									}
								}
							}
						}
					}
				}
				JOINT RightShoulder
				{
					OFFSET 0.000000 0.000000 0.000000
					CHANNELS 3 Zrotation Yrotation Xrotation
					JOINT RightArm
					{
						OFFSET -3.136600 1.374050 -0.404650
						CHANNELS 3 Zrotation Yrotation Xrotation
						JOINT RightForeArm
						{
							OFFSET -5.241900 -0.000000 -0.000000
							CHANNELS 3 Zrotation Yrotation Xrotation
							JOINT RightHand
							{
								OFFSET -3.444170 -0.000000 -0.000000
								CHANNELS 3 Zrotation Yrotation Xrotation
								JOINT RightFingerBase
								{
									OFFSET 0.000000 0.000000 0.000000
									CHANNELS 3 Zrotation Yrotation Xrotation
									JOINT RightHandIndex1
									{
										OFFSET -0.622530 -0.000000 -0.000000
										CHANNELS 3 Zrotation Yrotation Xrotation
										End Site
										{
											OFFSET 0.000000 0.000000 0.000000
										}
									}
								}
								JOINT RThumb
								{
									OFFSET 0.000000 0.000000 0.000000
									CHANNELS 3 Zrotation Yrotation Xrotation
									End Site
									{
										OFFSET 0.000000 0.000000 0.000000
									}
								}
							}
						}
					}
				}
			}
		}
	}
}
MOTION
Frames: 8
Frame Time: 0.008333
0.684212 19.215543 -7.681285 1.267525 6.638082 2.895039 -5.661680 -2.252033 0.542370 -9.047260 1.820880 -17.311979 3.440067 13.161509 37.072976 -2.431650 11.635427 6.239881 1.076900 -6.596200 -18.524300 4.692793 1.925474 0.070212 13.600542 -1.005695 -14.747973 -2.409178 -10.974699 28.964171 5.566461 -24.484447 8.099779 -0.171000 2.664000 -7.344600 -0.826290 -0.317844 6.527854 2.288120 -0.503154 -1.928333 2.512800 -0.134875 -3.706937 1.154686 1.721838 -19.451245 3.903744 1.252553 2.293184 -1.556300 0.366300 6.056900 3.608985 -1.616944 0.281960 -86.468935 8.392387 32.617105 22.438399 -32.985956 -6.185645 0.059630 0.371821 -12.416492 8.932332 1.010489 0.101500 -7.125000 0.000000 0.000000 -13.995400 30.469100 5.102600 -2.736406 1.275539 0.120969 83.488313 -3.251957 21.005101 -16.774394 26.654482 -3.912770 0.162292 -0.513250 -10.593907 -17.126120 -4.506155 1.219500 7.125000 0.000000 0.000000 7.746800 -34.031100 2.100800 
0.679819 19.151145 -7.534718 0.737433 6.667306 2.669384 -5.643298 -2.285671 0.428121 -8.419560 1.586711 -18.117472 3.358638 13.043616 36.684401 -2.516777 11.800288 5.843893 1.060700 -6.548100 -18.383100 4.723787 1.909856 0.159071 14.197794 -1.191406 -13.965590 -2.261091 -10.759789 28.230814 5.532115 -24.563398 8.469481 -0.247600 3.202100 -8.842000 -0.230324 -0.356988 6.636718 2.390282 -0.502270 -1.917511 2.299585 -0.140221 -3.749829 1.102644 1.721899 -19.271271 3.870061 1.267960 2.386833 -1.556200 0.375400 6.059200 3.594780 -1.606488 0.287231 -86.082043 8.662508 32.612995 23.227119 -33.850079 -6.595052 0.063447 0.374936 -12.992478 9.243351 0.882816 0.084400 -7.125000 0.000000 0.000000 -13.742300 30.349200 5.046000 -2.727291 1.277135 0.118629 83.409388 -3.024629 21.355769 -17.157345 27.133427 -4.071671 0.168153 -0.516238 -11.054593 -17.243601 -4.562459 1.244300 7.125000 0.000000 0.000000 7.656000 -34.088600 2.065000 
0.676225 19.077562 -7.389849 0.196227 6.710830 2.450330 -5.621584 -2.321648 0.306797 -7.784106 1.299906 -18.901544 3.269093 12.912443 36.252559 -2.605247 11.983332 5.481846 1.040700 -6.488100 -18.207300 4.746318 1.897617 0.253342 14.820799 -1.481933 -13.193934 -2.107599 -10.541812 27.523223 5.405689 -24.286449 8.770001 -0.356400 3.835200 -10.613400 0.386744 -0.401699 6.768908 2.495322 -0.505133 -1.914623 2.080086 -0.147102 -3.816609 1.083758 1.741530 -19.067084 3.785610 1.297348 2.447660 -1.577200 0.386600 6.047200 3.581867 -1.601014 0.292962 -85.704266 8.918431 32.585561 24.022991 -34.701626 -7.018486 0.067323 0.376968 -13.504193 9.533310 0.726022 0.061200 -7.125000 0.000000 0.000000 -13.501500 30.200400 5.002400 -2.716518 1.274916 0.116227 83.321894 -2.815909 21.722165 -17.587081 27.664545 -4.252867 0.174903 -0.519141 -11.571473 -17.338295 -4.631831 1.271700 7.125000 0.000000 0.000000 7.585000 -34.158800 2.032600 
0.673329 18.996691 -7.246876 -0.314418 6.753966 2.238312 -5.599948 -2.359981 0.181643 -7.183883 0.975595 -19.650526 3.163192 12.759789 35.745423 -2.696309 12.189074 5.190237 1.025400 -6.441400 -18.070700 4.758859 1.888119 0.351246 15.435161 -1.831384 -12.401665 -1.957402 -10.332673 26.884120 5.250714 -23.778014 8.749106 -0.480000 4.442800 -12.325800 0.980441 -0.445503 6.927893 2.592430 -0.506679 -1.915173 1.865842 -0.152562 -3.903333 1.092647 1.776715 -18.872836 3.650087 1.338809 2.490465 -1.619000 0.399200 6.031400 3.569855 -1.599104 0.298938 -85.332193 9.158216 32.543052 24.837979 -35.552644 -7.462614 0.070632 0.378982 -13.911904 9.804387 0.601924 0.041800 -7.125000 0.000000 0.000000 -13.279600 30.082700 4.954400 -2.704557 1.269937 0.113591 83.228155 -2.608386 22.087087 -18.047740 28.226789 -4.450340 0.181442 -0.521793 -12.110629 -17.406644 -4.649887 1.281100 7.125000 0.000000 0.000000 7.530000 -34.175100 2.014600 
0.670134 18.911227 -7.106599 -0.796596 6.781664 2.031570 -5.580322 -2.398523 0.055668 -6.610099 0.618509 -20.353850 3.034199 12.576125 35.127565 -2.795556 12.441622 4.998839 1.014800 -6.409100 -17.976100 4.762750 1.880839 0.449134 16.053856 -2.170194 -11.560531 -1.815608 -10.137796 26.323350 5.129820 -23.205120 8.236533 -0.591800 4.925000 -13.694700 1.542353 -0.486183 7.126817 2.683700 -0.502680 -1.917249 1.666477 -0.155457 -4.013851 1.063912 1.789059 -18.714957 3.539903 1.362355 2.564324 -1.647800 0.405500 6.031700 3.557238 -1.593599 0.303131 -84.971211 9.364199 32.478116 25.658092 -36.387451 -7.919722 0.073613 0.380749 -14.248994 10.058960 0.494191 0.024000 -7.125000 0.000000 0.000000 -13.072400 29.980600 4.906100 -2.693191 1.268313 0.110939 83.127638 -2.394693 22.444776 -18.532341 28.810750 -4.661532 0.186902 -0.524203 -12.638606 -17.452071 -4.564463 1.256400 7.125000 0.000000 0.000000 7.483200 -34.083400 2.018700 
0.665941 18.822967 -6.969517 -1.230284 6.778785 1.829123 -5.566530 -2.435809 -0.066916 -6.076121 0.238057 -20.990203 2.875363 12.352825 34.368931 -2.903892 12.744240 4.916840 1.010100 -6.394800 -17.934300 4.761514 1.873929 0.544120 16.660851 -2.461671 -10.651657 -1.680914 -9.950318 25.804978 5.069788 -22.701239 7.264088 -0.674100 5.250000 -14.623100 2.037288 -0.517159 7.369315 2.765914 -0.487298 -1.906539 1.496490 -0.152819 -4.132415 0.985618 1.779207 -18.611648 3.473520 1.371350 2.647835 -1.655300 0.406500 6.043600 3.544178 -1.583915 0.305575 -84.627350 9.507534 32.379364 26.480914 -37.204486 -8.388761 0.076001 0.382840 -14.530316 10.303004 0.431822 0.013300 -7.125000 0.000000 0.000000 -12.879000 29.922100 4.848600 -2.682585 1.269431 0.108062 83.021081 -2.142276 22.787060 -19.032727 29.406243 -4.883701 0.191166 -0.526373 -13.146659 -17.472596 -4.376486 1.197400 7.125000 0.000000 0.000000 7.446400 -33.884900 2.044700 
0.661648 18.733709 -6.834631 -1.593730 6.739679 1.629298 -5.561468 -2.472075 -0.184426 -5.603661 -0.166998 -21.550313 2.689326 12.092342 33.480890 -3.022191 13.095488 4.917515 1.011100 -6.397700 -17.942900 4.756970 1.866280 0.635478 17.224059 -2.728519 -9.691501 -1.553674 -9.766677 25.308154 5.067730 -22.316925 5.919970 -0.716500 5.409200 -15.079500 2.444366 -0.539355 7.639328 2.836979 -0.465161 -1.879395 1.363811 -0.145398 -4.245615 0.923117 1.786475 -18.545966 3.393286 1.399552 2.725361 -1.668500 0.415500 6.060600 3.532034 -1.574410 0.307757 -84.321972 9.591572 32.221925 27.292174 -37.990486 -8.861450 0.078512 0.384962 -14.733789 10.556606 0.391066 0.006000 -7.125000 0.000000 0.000000 -12.680700 29.884800 4.782100 -2.671515 1.269475 0.105150 82.900544 -1.848349 23.132133 -19.548527 30.011512 -5.117653 0.195388 -0.528500 -13.651795 -17.501482 -4.185203 1.137800 7.125000 0.000000 0.000000 7.403100 -33.683200 2.069100 
0.656756 18.647147 -6.701443 -1.913249 6.657708 1.432662 -5.564210 -2.505769 -0.295576 -5.160610 -0.592100 -22.031452 2.479177 11.794582 32.469758 -3.144007 13.470669 4.991207 1.015000 -6.409800 -17.978100 4.752408 1.857658 0.722093 17.765702 -2.971086 -8.689042 -1.427242 -9.572556 24.777800 5.113108 -22.095205 4.370841 -0.708200 5.378500 -14.991200 2.782539 -0.551215 7.930591 2.902155 -0.432639 -1.832957 1.263757 -0.132464 -4.346100 0.843969 1.788733 -18.520861 3.349777 1.427002 2.805915 -1.666700 0.426200 6.085200 3.520270 -1.561768 0.308923 -84.060998 9.608595 31.997504 28.077698 -38.733615 -9.328687 0.081314 0.387348 -14.878209 10.832799 0.375278 0.002900 -7.125000 0.000000 0.000000 -12.468200 29.872200 4.702200 -2.661307 1.270815 0.102079 82.776315 -1.493210 23.456992 -20.056596 30.600079 -5.353156 0.199152 -0.530562 -14.137983 -17.542768 -3.979068 1.074100 7.125000 0.000000 0.000000 7.348900 -33.466400 2.092600 
